<svg xmlns="http://www.w3.org/2000/svg" viewBox="0 0 482.6 767.94"><defs><style>.cls-1,.cls-8{fill:none;}.cls-1{stroke:#ff8200;stroke-width:11px;}.cls-1,.cls-9{stroke-miterlimit:22.93;}.cls-10,.cls-2,.cls-4,.cls-9{fill:#007aff;}.cls-2{fill-rule:evenodd;}.cls-3{fill:#8d8090;}.cls-5{fill:#483150;}.cls-6{fill:#ff8200;}.cls-7{fill:#ceb47b;}.cls-8,.cls-9{stroke:#007aff;}.cls-8{stroke-miterlimit:10;}.cls-9{stroke-width:5px;}.cls-10{font-size:70px;font-family:Quicksand-Medium, Quicksand;}.cls-11{letter-spacing:0em;}.cls-12{letter-spacing:0em;}.cls-13{letter-spacing:-0.02em;}.cls-14{letter-spacing:0em;}</style></defs><title>Asset 1</title><g id="Layer_2" data-name="Layer 2"><g id="Layer_1-2" data-name="Layer 1"><rect class="cls-1" x="5.5" y="5.5" width="471.6" height="756.94" rx="235.8" ry="235.8"/><path class="cls-2" d="M121.29,245.74A123.18,123.18,0,1,0,288.38,130.63a91.47,91.47,0,1,1-87.83,0A123.21,123.21,0,0,0,121.29,245.74Z"/><polygon class="cls-3" points="449.18 354.61 449.65 355.28 449.08 355.28 449.18 354.61"/><path class="cls-4" d="M446.47,357.28l2.61-2c-.2,2.46-2.54,7.85-3.71,10-18.1,32.64-74.72,11.23-103.14,22.18a43.11,43.11,0,0,0-8.55,4.47h0a68.9,68.9,0,0,1,15.47-7.95c8-2.73,17.62-3.63,28.89-3.44,4.13.06,8.48.27,12.82.47,8.22,1,16.63,1.52,26.24-.58h.06a48,48,0,0,0,11.77-3.75l.09,0c.61-.25,1.22-.51,1.84-.79,4.95-2.22,7.66-4.09,10-7.13h0l.67-.64a24.6,24.6,0,0,0,4.33-5.13c1-1.78,1.72-3.83,0-3.16a22,22,0,0,0-2.89,1.68c.37-.29.73-.59,1.07-.9C445.34,359.3,445.33,358.48,446.47,357.28Z"/><path class="cls-4" d="M445.87,359.71c1.72-.67,1,1.38,0,3.16a24.6,24.6,0,0,1-4.33,5.13l-.67.64a41.56,41.56,0,0,0,3.66-6c-3.62,1-.88,2.45-10.62,5.34-2.26.67-4.12,1.09-6.41,1.56-2.66.55-4.34.26-7.38.59-20.7,2.25-41.39-10.4-58.37-19.85-3.46-1.92-6.14-3.71-9.68-5.69-4.73-2.64-10.29-5.91-16.16-8.13l.54-1.39c3.46,1.35,7.45,3.13,12,5.38,11.13,5.49,25.74,13.82,37.53,19.25s20.77,8,28.61,8.7a42.11,42.11,0,0,0,20-2.49,41.37,41.37,0,0,0,5.85-3,17.63,17.63,0,0,0,2.42-1.5l.11-.07A22,22,0,0,1,445.87,359.71Z"/><path class="cls-5" d="M440.45,363c.89-.52,1.7-1,2.42-1.5A17.63,17.63,0,0,1,440.45,363Z"/><path class="cls-6" d="M433.91,368c9.74-2.89,7-4.37,10.62-5.34a41.56,41.56,0,0,1-3.66,6h0a40.8,40.8,0,0,1-8.08,6c-1.12.64-2.37,1.32-3.77,2l-.09,0a67.93,67.93,0,0,1-11.77,3.75h-.06c-1.6.29-3.29.52-5.1.68-6.18.55-13.63.25-21.14-.1-17.9-2.14-34.92-6.45-61.57,9.46-12.33,7.35-14.79,10.53-24.19,16.82-5.95,4-10.91,6.82-18.46,8.88-1.1.3-2.2.56-3.29.78-42.31,8.56-77.5-41.57-48.33-60.37,25.69-16.57,39.8,20.89,21.41,22.56-4.14.37-8-1.89-11.27-2.16,4.8,4.17,12.8,6.12,17.55,1.6,8.26-7.88,5.38-25.69-11-28.64-17.43-3.13-39.19,11.38-28.19,39,4.68,11.75,12.39,20.18,22.22,26.77-1.74,7.46-4.74,12.82-8.83,16.74-6,5.71-14.29,8.31-24.44,9.8-13.7,2-21-6.18-27.79-16.18-2.36-3.48-4-5.87-7.29-8.09-5.45,3.65-9.23,5.82-18.57,2.05a28.08,28.08,0,0,1-8.17-5.43c-2.25-2.13-4.06-4.56-4.59-6.87,4.85,0,8.25-.7,11.41-2.26,37.39-18.49.28-50.29-8.77-33.84-2,3.7-2.07,6.66-2.07,12.18h.57c0-7.61,6.95-19.33,15.23-12.39,9.72,8.15,13.85,31.49-19.24,30.64-9.11-.24-16.69-5.57-20.83-11.08-9.84-13.11-10.57-34.9-1.15-49.11a33.13,33.13,0,0,1,5.88-6.8,41.28,41.28,0,0,1,12.45-5.92h.06c9.36-1.64,19.38,1.37,28.1,3.4-.44-.6-.16-.3-.87-.83a4,4,0,0,0-.33-.24l-1.07-.64,0-3.38c-.52-9.9.77-18.76,7.8-25.82,12-12,26.22-2.95,29.2-2.7-.76-1.57-.45-3.72.41-6a34.36,34.36,0,0,1,8.37-12,48,48,0,0,1,54.13-3.33c28.53,17.23,14.22,47.26,15.44,49.59.86,1.65,2.78-.27,4-1.14,7.72-5.39,16.66-10.18,25.14-3.05a22.14,22.14,0,0,1,5.25,6.7c.12.68.19,1.27.31,1.73-9.13,1.06-26.8,17.72-11.69,36.43a21,21,0,0,0,6.84,5.12,13.84,13.84,0,0,0,10.09.38c2.61-.88,6.32-3.06,7.58-4.94-2.73.63-16,7.86-23.12-2.51-5.06-7.39-3.35-18.14,1.59-24.15a19.15,19.15,0,0,1,9-6.4c6.62-2.46,13.57-1.29,20.13,1.18,5.87,2.22,11.43,5.49,16.16,8.13,3.54,2,6.22,3.77,9.68,5.69,17,9.45,37.67,22.1,58.37,19.85,3-.33,4.72,0,7.38-.59C429.79,369.11,431.65,368.69,433.91,368Z"/><path class="cls-4" d="M440.45,363a41.37,41.37,0,0,1-5.85,3,42.11,42.11,0,0,1-20,2.49c-7.84-.74-16.82-3.27-28.61-8.7s-26.4-13.76-37.53-19.25c-4.58-2.25-8.57-4-12-5.38a50.16,50.16,0,0,0-11.78-3.33c-5-.58-7.45.89-8.47.6-.38-.1-.57-.46-.7-1l.29,0a9.05,9.05,0,0,0-.6-1.69,12.75,12.75,0,0,0-.57-2.17,14.52,14.52,0,0,0-6.14-7.31c-3-1.69-6.76-2-11.07-1.17-4,.78-8.46,2.58-10.71,2.3l0-.78c4.48-2.37,3.63-2.25,8.77-3.76,12.16-3.58,20.78,6.38,21.42,14,19.65-9.43,54.83,21.23,72.83,28.56,10.79,4.41,14.83,6.4,26.81,7.37C423.33,367.26,433.59,366.59,440.45,363Z"/><path class="cls-7" d="M428.92,376.61a48,48,0,0,1-11.77,3.75A67.93,67.93,0,0,0,428.92,376.61Z"/><path class="cls-4" d="M390.85,381c-4.34-.2-8.69-.41-12.82-.47-11.27-.19-20.85.71-28.89,3.44a68.9,68.9,0,0,0-15.47,7.95c-2,1.3-4,2.64-6,4a239.1,239.1,0,0,1-21.47,13.24,82,82,0,0,1-22.77,8.41l-.12-.62c1.09-.22,2.19-.48,3.29-.78,7.55-2.06,12.51-4.9,18.46-8.88,9.4-6.29,11.86-9.47,24.19-16.82C355.93,374.5,373,378.81,390.85,381Z"/><path class="cls-4" d="M336.45,335.11l-.54,1.39c-6.56-2.47-13.51-3.64-20.13-1.18a19.15,19.15,0,0,0-9,6.4c-4.94,6-6.65,16.76-1.59,24.15,7.09,10.37,20.39,3.14,23.12,2.51-1.26,1.88-5,4.06-7.58,4.94a13.84,13.84,0,0,1-10.09-.38,21,21,0,0,1-6.84-5.12c-15.11-18.71,2.56-35.37,11.69-36.43.13.53.32.89.7,1,1,.29,3.44-1.18,8.47-.6A50.16,50.16,0,0,1,336.45,335.11Z"/><path class="cls-4" d="M333.67,391.87h0C326,397.05,320.29,404,311.8,410c-1.54,1.08-3.55,2.48-5.14,3.4-1,.59-1.86.9-3,1.55a64,64,0,0,1-15.19,6.45c-10.53,2.76-19.66,3.23-30.2,0A59,59,0,0,1,249,417.5c2-1.09,4.25.54,9.6,1.26,5.95.81,15.78.49,24.37-1.16l.47-.09a82,82,0,0,0,22.77-8.41,239.1,239.1,0,0,0,21.47-13.24C329.71,394.51,331.68,393.17,333.67,391.87Z"/><path class="cls-4" d="M314.62,327.49a12.75,12.75,0,0,1,.57,2.17,22.14,22.14,0,0,0-5.25-6.7c-8.48-7.13-17.42-2.34-25.14,3.05-1.24.87-3.16,2.79-4,1.14-1.22-2.33,13.09-32.36-15.44-49.59a48,48,0,0,0-54.13,3.33,34.36,34.36,0,0,0-8.37,12l-.16-.06a33,33,0,0,1,7.22-11.64c4.63-4.7,11.81-8.7,19.55-10.74a47.69,47.69,0,0,1,23.52-.23,50.34,50.34,0,0,1,19.79,10.37c5.52,4.62,9.8,10,11.74,15.67s1.53,11.64,1,16.3-1.29,8,.76,8.65a2.26,2.26,0,0,0,.48.1c2.25.28,6.71-1.52,10.71-2.3,4.31-.85,8.08-.52,11.07,1.17A14.52,14.52,0,0,1,314.62,327.49Z"/><path class="cls-4" d="M286,292.77c3.47,9.11,3,18,.72,27.76l0,.78a2.26,2.26,0,0,1-.48-.1c-2.05-.66-1.32-4-.76-8.65s1-10.63-1-16.3-6.22-11.05-11.74-15.67A50.34,50.34,0,0,0,253,270.22a47.69,47.69,0,0,0-23.52.23c-7.74,2-14.92,6-19.55,10.74a33,33,0,0,0-7.22,11.64c-.19.5-.35,1-.49,1.37a3.82,3.82,0,0,1-.13.36l-.92-.32c.14-.37.51-3.13.59-3.46,2-8.53,9.51-15.81,17.22-19.24A57.25,57.25,0,0,1,238.78,267h6.9c11.6.64,23,4.5,30.75,12C280.57,283,283.83,287,286,292.77Z"/><path class="cls-4" d="M283.34,416.89l.12.62-.47.09c-8.59,1.65-18.42,2-24.37,1.16-5.35-.72-7.56-2.35-9.6-1.26h0a21.24,21.24,0,0,0-2.72-1.27,27.49,27.49,0,0,1-.43,4.9,69.14,69.14,0,0,1-7.08,9.85c-.52.57-1.07,1.13-1.64,1.68l-.25-.26c4.09-3.92,7.09-9.28,8.83-16.74-9.83-6.59-17.54-15-22.22-26.77-11-27.63,10.76-42.14,28.19-39,16.39,2.95,19.27,20.76,11,28.64-4.75,4.52-12.75,2.57-17.55-1.6,3.24.27,7.13,2.53,11.27,2.16,18.39-1.67,4.28-39.13-21.41-22.56C205.84,375.32,241,425.45,283.34,416.89Z"/><path class="cls-5" d="M249,417.5a3.9,3.9,0,0,0-.67.47,15.62,15.62,0,0,0-2.48,3.16,27.49,27.49,0,0,0,.43-4.9A21.24,21.24,0,0,1,249,417.5Z"/><path class="cls-4" d="M238.78,431a69.14,69.14,0,0,0,7.08-9.85c-1.53,8.53-7.07,14.67-14.28,19.68-3.6,2.5-11.84,5.81-16.65,6.15-20.08,1.41-28.58-8-37-23.9l-.09-.57a2.47,2.47,0,0,1,2.75,1c1.47,1.88,3.16,6.63,7,10.9a38.1,38.1,0,0,0,15.58,9.91c5.66,1.84,10.93,1.71,17.19-.76a54,54,0,0,0,16.74-10.9C237.71,432.11,238.26,431.55,238.78,431Z"/><path class="cls-4" d="M236.89,432.4l.25.26a54,54,0,0,1-16.74,10.9c-6.26,2.47-11.53,2.6-17.19.76a38.1,38.1,0,0,1-15.58-9.91c-3.87-4.27-5.56-9-7-10.9a2.47,2.47,0,0,0-2.75-1c-.85.14-1.89.46-3.31.71A26.44,26.44,0,0,1,160.86,422a34.83,34.83,0,0,1-10.55-7.07l.32-.34A28.08,28.08,0,0,0,158.8,420c9.34,3.77,13.12,1.6,18.57-2.05,3.31,2.22,4.93,4.61,7.29,8.09,6.76,10,14.09,18.19,27.79,16.18C222.6,440.71,230.91,438.11,236.89,432.4Z"/><path class="cls-4" d="M202.68,292.83l.16.06c-.86,2.27-1.17,4.42-.41,6-3-.25-17.24-9.29-29.2,2.7-7,7.06-8.32,15.92-7.8,25.82l0,3.38c-.12-.23-.24-.45-.35-.68.51-1.25-1.06-4.31-1-8.66s1.75-10.2,4.05-14.94,5.2-8.44,8.91-10.48a20,20,0,0,1,12.41-1.77,61.56,61.56,0,0,1,10,2.75c1.81.55,1.82.16,2.69-2.44a3.82,3.82,0,0,0,.13-.36C202.33,293.79,202.49,293.33,202.68,292.83Z"/><path class="cls-4" d="M201.14,294.24l.92.32c-.87,2.6-.88,3-2.69,2.44a61.56,61.56,0,0,0-10-2.75A20,20,0,0,0,177,296c-3.71,2-6.6,5.74-8.91,10.48s-4,10.51-4.05,14.94,1.53,7.41,1,8.66c-9.87-19.51,2.28-35.19,18.15-38.48C199.52,288.25,199.51,298.75,201.14,294.24Z"/><path class="cls-4" d="M177.85,422.49l.09.57c-10.38,5.49-22.89,1-29.2-6.12a17.43,17.43,0,0,1-4.31-8.47c1.59,1.2,2.16,2.5,4.16,4.68.49.54,1.07,1.13,1.72,1.74A34.83,34.83,0,0,0,160.86,422a26.44,26.44,0,0,0,13.68,1.24C176,423,177,422.63,177.85,422.49Z"/><path class="cls-7" d="M166.81,331.66c.71.53.43.23.87.83-8.72-2-18.74-5-28.1-3.4.89-.25,1.76-.46,2.61-.62,6.58-1.25,11.57.14,15.48,1.18,3.37.89,6,1.54,7,.93.25.08.5.14.75.2l1.07.64A4,4,0,0,1,166.81,331.66Z"/><path class="cls-5" d="M165.06,330.1c.11.23.23.45.35.68-.25-.06-.5-.12-.75-.2a.92.92,0,0,0,.38-.4A.24.24,0,0,0,165.06,330.1Z"/><path class="cls-4" d="M164.66,330.58c-1,.61-3.62,0-7-.93-3.91-1-8.9-2.43-15.48-1.18-.85.16-1.72.37-2.61.62h-.06A25.29,25.29,0,0,0,127.07,335a31.89,31.89,0,0,0-5,4.26c-5.34,5.69-7.85,13.18-9.15,20.26s-1.41,13.76,1.52,20.89a53.36,53.36,0,0,0,14.58,19.35c5.69,4.63,11.11,6.29,13.95,7.79l.14.08c-12-.57-21.5-9.73-26.5-17.28a48.41,48.41,0,0,1-8.2-22.34v-7.31a42.93,42.93,0,0,1,1-6.14c2.68-11.14,11-20.13,19.89-25.12s17.7-4.72,28-1.46C159.78,328.76,162.18,329.9,164.66,330.58Z"/><path class="cls-4" d="M143.17,402c33.09.85,29-22.49,19.24-30.64-8.28-6.94-15.23,4.78-15.23,12.39h-.57c0-5.52,0-8.48,2.07-12.18,9-16.45,46.16,15.35,8.77,33.84-3.16,1.56-6.56,2.26-11.41,2.26.53,2.31,2.34,4.74,4.59,6.87l-.32.34c-.65-.61-1.23-1.2-1.72-1.74-2-2.18-2.57-3.48-4.16-4.68a7.11,7.11,0,0,1-.1-.79c-.4,0-.8,0-1.19,0l-.14-.08c-2.84-1.5-8.26-3.16-13.95-7.79a53.36,53.36,0,0,1-14.58-19.35c-2.93-7.13-2.83-13.81-1.52-20.89s3.81-14.57,9.15-20.26a31.89,31.89,0,0,1,5-4.26,33.13,33.13,0,0,0-5.88,6.8c-9.42,14.21-8.69,36,1.15,49.11C126.48,396.44,134.06,401.77,143.17,402Z"/><path class="cls-5" d="M144.33,407.68a7.11,7.11,0,0,0,.1.79,10,10,0,0,0-1.29-.82C143.53,407.67,143.93,407.68,144.33,407.68Z"/><path class="cls-8" d="M429,376.57c1.4-.65,2.65-1.33,3.77-2a40.8,40.8,0,0,0,8.08-6"/><path class="cls-8" d="M390.85,381c7.51.35,15,.65,21.14.1,1.81-.16,3.5-.39,5.1-.68"/><path class="cls-8" d="M249,417.5c2-1.09,4.25.54,9.6,1.26,5.95.81,15.78.49,24.37-1.16l.47-.09"/><path class="cls-8" d="M245.86,421.13a15.62,15.62,0,0,1,2.48-3.16,3.9,3.9,0,0,1,.67-.47"/><path class="cls-8" d="M143.14,407.65a10,10,0,0,1,1.29.82"/><path class="cls-8" d="M139.52,329.1A41.28,41.28,0,0,0,127.07,335"/><path class="cls-8" d="M165.06,330.1a.24.24,0,0,1,0,.08.92.92,0,0,1-.38.4"/><path class="cls-8" d="M315.5,331.39c-.12-.46-.19-1.05-.31-1.73"/><path class="cls-8" d="M442.87,361.46c-.72.46-1.53,1-2.42,1.5"/><path class="cls-8" d="M165.41,330.78l0-3.38c-.52-9.9.77-18.76,7.8-25.82,12-12,26.22-2.95,29.2-2.7-.76-1.57-.45-3.72.41-6a34.36,34.36,0,0,1,8.37-12,48,48,0,0,1,54.13-3.33c28.53,17.23,14.22,47.26,15.44,49.59.86,1.65,2.78-.27,4-1.14,7.72-5.39,16.66-10.18,25.14-3.05a22.14,22.14,0,0,1,5.25,6.7,9.05,9.05,0,0,1,.6,1.69l-.29,0c-9.13,1.06-26.8,17.72-11.69,36.43a21,21,0,0,0,6.84,5.12,13.84,13.84,0,0,0,10.09.38c2.61-.88,6.32-3.06,7.58-4.94-2.73.63-16,7.86-23.12-2.51-5.06-7.39-3.35-18.14,1.59-24.15a19.15,19.15,0,0,1,9-6.4c6.62-2.46,13.57-1.29,20.13,1.18,5.87,2.22,11.43,5.49,16.16,8.13,3.54,2,6.22,3.77,9.68,5.69,17,9.45,37.67,22.1,58.37,19.85,3-.33,4.72,0,7.38-.59,2.29-.47,4.15-.89,6.41-1.56,9.74-2.89,7-4.37,10.62-5.34a41.56,41.56,0,0,1-3.66,6h0c-2.35,3-5.06,4.91-10,7.13-.62.28-1.23.54-1.84.79l-.09,0a67.93,67.93,0,0,1-11.77,3.75h-.06c-9.61,2.1-18,1.57-26.24.58-17.9-2.14-34.92-6.45-61.57,9.46-12.33,7.35-14.79,10.53-24.19,16.82-5.95,4-10.91,6.82-18.46,8.88-1.1.3-2.2.56-3.29.78-42.31,8.56-77.5-41.57-48.33-60.37,25.69-16.57,39.8,20.89,21.41,22.56-4.14.37-8-1.89-11.27-2.16,4.8,4.17,12.8,6.12,17.55,1.6,8.26-7.88,5.38-25.69-11-28.64-17.43-3.13-39.19,11.38-28.19,39,4.68,11.75,12.39,20.18,22.22,26.77-1.74,7.46-4.74,12.82-8.83,16.74-6,5.71-14.29,8.31-24.44,9.8-13.7,2-21-6.18-27.79-16.18-2.36-3.48-4-5.87-7.29-8.09-5.45,3.65-9.23,5.82-18.57,2.05a28.08,28.08,0,0,1-8.17-5.43c-2.25-2.13-4.06-4.56-4.59-6.87,4.85,0,8.25-.7,11.41-2.26,37.39-18.49.28-50.29-8.77-33.84-2,3.7-2.07,6.66-2.07,12.18h.57c0-7.61,6.95-19.33,15.23-12.39,9.72,8.15,13.85,31.49-19.24,30.64-9.11-.24-16.69-5.57-20.83-11.08-9.84-13.11-10.57-34.9-1.15-49.11a33.13,33.13,0,0,1,5.88-6.8,25.29,25.29,0,0,1,12.45-5.92h.06c9.36-1.64,19.38,1.37,28.1,3.4-.44-.6-.16-.3-.87-.83a4,4,0,0,0-.33-.24Z"/><path class="cls-8" d="M286.74,320.53c2.26-9.72,2.75-18.65-.72-27.76-2.19-5.74-5.45-9.76-9.59-13.77-7.75-7.52-19.15-11.38-30.75-12h-6.9A57.25,57.25,0,0,0,219,271.54c-7.71,3.43-15.24,10.71-17.22,19.24-.08.33-.45,3.09-.59,3.46-1.63,4.51-1.62-6-17.93-2.62-15.87,3.29-28,19-18.15,38.48.11.23.23.45.35.68-.25-.06-.5-.12-.75-.2-2.48-.68-4.88-1.82-7.3-2.58-10.32-3.26-19-3.6-28,1.46s-17.21,14-19.89,25.12a42.93,42.93,0,0,0-1,6.14V368a48.41,48.41,0,0,0,8.2,22.34c5,7.55,14.48,16.71,26.5,17.28.39,0,.79,0,1.19,0a7.11,7.11,0,0,0,.1.79,17.43,17.43,0,0,0,4.31,8.47c6.31,7.15,18.82,11.61,29.2,6.12,8.41,15.9,16.91,25.31,37,23.9,4.81-.34,13-3.65,16.65-6.15,7.21-5,12.75-11.15,14.28-19.68a27.49,27.49,0,0,0,.43-4.9A21.24,21.24,0,0,1,249,417.5h0a59,59,0,0,0,9.23,3.86c10.54,3.23,19.67,2.76,30.2,0a64,64,0,0,0,15.19-6.45c1.16-.65,2-1,3-1.55,1.59-.92,3.6-2.32,5.14-3.4,8.49-6,14.18-12.91,21.88-18.08a43.11,43.11,0,0,1,8.55-4.47c28.42-11,85,10.46,103.14-22.18,1.17-2.1,3.51-7.49,3.71-10l-2.61,2c-1.14,1.2-1.13,2-2.42,3.21-.34.31-.7.61-1.07.9l-.11.07a17.63,17.63,0,0,1-2.42,1.5c-6.86,3.63-17.12,4.3-23.88,3.75-12-1-16-3-26.81-7.37-18-7.33-53.18-38-72.83-28.56-.64-7.63-9.26-17.59-21.42-14C290.37,318.28,291.22,318.16,286.74,320.53Z"/><polygon class="cls-8" points="449.08 355.28 449.65 355.28 449.18 354.61 449.08 355.28"/><path class="cls-4" d="M250.89,426.92c7.73,0,7.74-12,0-12s-7.73,12,0,12Z"/><path class="cls-2" d="M233.07,180.69l-13.73-6.28-24.65-11.28,21.92,15.94,9.41,6.84-14.51,1.45-29.75,3,29.75,3L228.4,195l-4.5,3.27L208.47,209.5l17.35-7.94,6-2.75L226,212.72l-10.56,25,15.3-22.37,6.18-9.06,1.39,13.84,3,29.75,3-29.75,1.63-16.29,2.82,4.12,10.76,15.75L252,206.1l-2.58-6.1,13.73,6.28,24.64,11.27L265.9,201.62l-9.4-6.84,14.5-1.46,29.75-3-29.75-3-16.88-1.69,4.49-3.26,15.44-11.22-17.36,7.93-6,2.76L256.55,168l10.55-25-15.29,22.37-6.19,9.05-1.38-13.83-3-29.75-3,29.75-1.63,16.29-2.82-4.12L223.06,157l7.43,17.58,2.58,6.1Z"/><path class="cls-6" d="M241.25,182.65a7.7,7.7,0,1,1-7.69,7.69A7.69,7.69,0,0,1,241.25,182.65Z"/><line class="cls-9" x1="76.9" y1="554.13" x2="411.7" y2="554.13"/><text class="cls-10" transform="translate(33.18 527.11)"> <tspan class="cls-11" x="19.39" y="0">R</tspan><tspan class="cls-12" x="67.27" y="0">a</tspan><tspan class="cls-13" x="110.25" y="0">r</tspan><tspan x="137.62" y="0">e Goods</tspan></text><text class="cls-10" transform="translate(146.13 624.99)"><tspan class="cls-14">R</tspan><tspan x="47.25" y="0">epo</tspan></text></g></g></svg>