<?xml version="1.0" encoding="utf-8"?>
<!-- Generator: Adobe Illustrator 22.0.0, SVG Export Plug-In . SVG Version: 6.00 Build 0)  -->
<svg version="1.1" id="Layer_1" xmlns="http://www.w3.org/2000/svg" xmlns:xlink="http://www.w3.org/1999/xlink" x="0px" y="0px"
	 viewBox="0 0 1000 1000" style="enable-background:new 0 0 1000 1000;" xml:space="preserve">
<style type="text/css">
	.st0{fill:#8D8090;}
	.st1{fill:#483150;}
	.st2{fill:#CEB47B;}
	.st3{fill:#FF8200;}
	.st4{fill:#007AFF;}
	.st5{fill:none;stroke:#FF8200;stroke-miterlimit:10;}
</style>
<g>
	<g id="XMLID_1_">
		<g>
			<polygon class="st0" points="669.3,497.2 669.8,497.9 669.2,497.9 			"/>
			<path class="st1" d="M660.6,505.5c0.9-0.5,1.7-1,2.4-1.5C662.2,504.6,661.4,505.1,660.6,505.5z"/>
			<path class="st2" d="M649,519.2c-3.1,1.5-7,2.9-11.8,3.8C641,522.1,644.9,520.9,649,519.2z"/>
			<path class="st3" d="M634.7,511c7.9,0.8,14.6-0.3,20-2.5c2.2-0.9,4.2-2,5.8-3c0.9-0.5,1.7-1,2.4-1.5c0,0,0.1-0.1,0.1-0.1
				c1.3-0.8,2.3-1.4,2.9-1.7c1.7-0.7,1,1.4,0,3.2c-1,1.8-2.4,3.3-4.3,5.1c-0.2,0.2-0.4,0.4-0.7,0.6c1.2-1.6,2.4-3.5,3.7-6
				c-3.6,1-0.9,2.4-10.6,5.3c-2.3,0.7-4.1,1.1-6.4,1.6c-2.7,0.6-4.3,0.3-7.4,0.6c-20.7,2.3-41.4-10.4-58.4-19.9
				c-3.5-1.9-6.1-3.7-9.7-5.7c-4.7-2.6-10.3-5.9-16.2-8.1l0.5-1.4c3.5,1.4,7.5,3.1,12,5.4c11.1,5.5,25.7,13.8,37.5,19.3
				S626.9,510.3,634.7,511z"/>
			<path class="st3" d="M665.5,507.8c-18.1,32.6-74.7,11.2-103.1,22.2c-3.2,1.2-6,2.8-8.6,4.5l0,0c4.8-3.2,9.8-6,15.5-8
				c8-2.7,17.6-3.6,28.9-3.4c4.1,0.1,8.5,0.3,12.8,0.5c8.2,1,16.6,1.5,26.2-0.6c0,0,0,0,0.1,0c4.8-0.9,8.6-2.3,11.8-3.8
				c0,0,0.1,0,0.1,0c0.6-0.3,1.2-0.5,1.8-0.8c4.9-2.2,7.7-4.1,10-7.1c0,0,0,0,0,0c0.2-0.2,0.5-0.4,0.7-0.6c1.9-1.8,3.3-3.3,4.3-5.1
				c1-1.8,1.7-3.8,0-3.2c-0.6,0.3-1.6,0.9-2.9,1.7c0.4-0.3,0.7-0.6,1.1-0.9c1.3-1.2,1.3-2,2.4-3.2l2.6-2
				C669,500.3,666.7,505.7,665.5,507.8z"/>
			<path class="st3" d="M525.3,508.5c7.1,10.4,20.4,3.1,23.1,2.5c-1.3,1.9-5,4.1-7.6,4.9c-3.6,1.2-7,0.9-10.1-0.4
				c-2.3-1-5.4-3.3-6.8-5.1c-15.1-18.7,2.6-35.4,11.7-36.4c0.1,0.5,0.3,0.9,0.7,1c1,0.3,3.4-1.2,8.5-0.6c3,0.4,6.8,1.4,11.8,3.3
				l-0.5,1.4c-6.6-2.5-13.5-3.6-20.1-1.2c-4,1.5-6.4,3.3-9,6.4C522,490.3,520.3,501.1,525.3,508.5z"/>
			<path class="st3" d="M517.5,461.6c-4,0.8-8.5,2.6-10.7,2.3l0-0.8c4.5-2.4,3.6-2.3,8.8-3.8c12.2-3.6,20.8,6.4,21.4,14
				c19.7-9.4,54.8,21.2,72.8,28.6c10.8,4.4,14.8,6.4,26.8,7.4c6.8,0.5,17-0.1,23.9-3.8c-1.7,1-3.7,2.1-5.8,3
				c-5.4,2.2-12.1,3.2-20,2.5c-7.8-0.7-16.8-3.3-28.6-8.7s-26.4-13.8-37.5-19.3c-4.6-2.3-8.6-4-12-5.4c-5-1.9-8.8-3-11.8-3.3
				c-5-0.6-7.5,0.9-8.5,0.6c-0.4-0.1-0.6-0.5-0.7-1c0.1,0,0.2,0,0.3,0c-0.1-0.5-0.3-1.1-0.6-1.7c-0.1-0.6-0.3-1.4-0.6-2.2
				c-0.9-2.6-3.1-5.6-6.1-7.3C525.6,461.1,521.8,460.7,517.5,461.6z"/>
			<path class="st3" d="M506.7,558.7c7.5-2.1,12.5-4.9,18.5-8.9c9.4-6.3,11.9-9.5,24.2-16.8c26.6-15.9,43.7-11.6,61.6-9.5
				c-4.3-0.2-8.7-0.4-12.8-0.5c-11.3-0.2-20.9,0.7-28.9,3.4c-5.7,1.9-10.6,4.8-15.5,8c-2,1.3-4,2.6-6,4c-6.9,4.7-14.2,9.4-21.5,13.2
				c-7.2,3.8-14.4,6.7-22.8,8.4l-0.1-0.6C504.5,559.3,505.6,559,506.7,558.7z"/>
			<path class="st3" d="M478.7,561.3c5.9,0.8,15.8,0.5,24.4-1.2c0.2,0,0.3-0.1,0.5-0.1c8.4-1.7,15.6-4.6,22.8-8.4
				c7.3-3.9,14.6-8.6,21.5-13.2c2-1.3,4-2.7,6-4l0,0c-7.7,5.2-13.4,12.1-21.9,18.1c-1.5,1.1-3.5,2.5-5.1,3.4c-1,0.6-1.9,0.9-3,1.5
				c-4.8,2.7-9.6,5-15.2,6.5c-10.5,2.8-19.7,3.2-30.2,0c-3.8-1.2-7-2.8-9.2-3.9C471.2,559,473.4,560.6,478.7,561.3z"/>
			<path class="st4" d="M342.5,533.5c-9.8-13.1-10.6-34.9-1.2-49.1c1.8-2.8,3.8-5,5.9-6.8c3.9-2.8,8.4-4.8,12.5-5.9c0,0,0,0,0.1,0
				c9.4-1.6,19.4,1.4,28.1,3.4c-0.4-0.6-0.2-0.3-0.9-0.8c-0.1-0.1-0.2-0.2-0.3-0.2l-1.1-0.6l0-3.4c-0.5-9.9,0.8-18.8,7.8-25.8
				c12-12,26.2-3,29.2-2.7c-0.8-1.6-0.5-3.7,0.4-6c1.8-4.9,6.3-10.4,8.4-12c16.3-12.6,37.9-13.1,54.1-3.3
				c28.5,17.2,14.2,47.3,15.4,49.6c0.9,1.6,2.8-0.3,4-1.1c7.7-5.4,16.7-10.2,25.1-3c1.7,1.5,4.1,4.2,5.3,6.7
				c0.1,0.7,0.2,1.3,0.3,1.7c-9.1,1.1-26.8,17.7-11.7,36.4c1.4,1.8,4.6,4.2,6.8,5.1c3.1,1.3,6.5,1.6,10.1,0.4
				c2.6-0.9,6.3-3.1,7.6-4.9c-2.7,0.6-16,7.9-23.1-2.5c-5.1-7.4-3.3-18.1,1.6-24.2c2.6-3.1,5-4.9,9-6.4c6.6-2.5,13.6-1.3,20.1,1.2
				c5.9,2.2,11.4,5.5,16.2,8.1c3.5,2,6.2,3.8,9.7,5.7c17,9.5,37.7,22.1,58.4,19.9c3-0.3,4.7,0,7.4-0.6c2.3-0.5,4.2-0.9,6.4-1.6
				c9.7-2.9,7-4.4,10.6-5.3c-1.3,2.4-2.4,4.4-3.7,6c0,0,0,0,0,0c-1.8,1.7-4.1,3.7-8.1,5.9c-1.1,0.6-2.4,1.3-3.8,2c0,0-0.1,0-0.1,0
				c-4.1,1.7-8.1,2.9-11.8,3.8c0,0,0,0-0.1,0c-1.6,0.3-3.3,0.5-5.1,0.7c-6.2,0.5-13.6,0.3-21.1-0.1c-17.9-2.1-34.9-6.5-61.6,9.5
				c-12.3,7.4-14.8,10.5-24.2,16.8c-6,4-10.9,6.8-18.5,8.9c-1.1,0.3-2.2,0.6-3.3,0.8c-42.3,8.6-77.5-41.6-48.3-60.4
				c25.7-16.6,39.8,20.9,21.4,22.6c-4.1,0.4-8-1.9-11.3-2.2c4.8,4.2,12.8,6.1,17.5,1.6c8.3-7.9,5.4-25.7-11-28.6
				c-17.4-3.1-39.2,11.4-28.2,39c4.7,11.8,12.4,20.2,22.2,26.8c-1.7,7.5-4.7,12.8-8.8,16.7c-6,5.7-14.3,8.3-24.4,9.8
				c-13.7,2-21-6.2-27.8-16.2c-2.4-3.5-4-5.9-7.3-8.1c-5.5,3.6-9.2,5.8-18.6,2c-2.5-1-5.6-3-8.2-5.4c-2.3-2.1-4-4.6-4.6-6.9
				c4.9,0,8.3-0.7,11.4-2.3c37.4-18.5,0.3-50.3-8.8-33.8c-2,3.7-2.1,6.7-2.1,12.2h0.6c0-7.6,6.9-19.3,15.2-12.4
				c9.7,8.1,13.9,31.5-19.2,30.6C354.2,544.3,346.6,539,342.5,533.5z"/>
			<path class="st1" d="M469.1,560.1c-0.2,0.1-0.4,0.3-0.7,0.5c-0.8,0.7-1.6,1.8-2.5,3.2c0.3-1.6,0.4-3.2,0.4-4.9
				C466.9,558.9,467.8,559.4,469.1,560.1z"/>
			<path class="st3" d="M457,575c4.1-3.9,7.1-9.3,8.8-16.7c-9.8-6.6-17.5-15-22.2-26.8c-11-27.6,10.8-42.1,28.2-39
				c16.4,3,19.3,20.8,11,28.6c-4.8,4.5-12.8,2.6-17.5-1.6c3.2,0.3,7.1,2.5,11.3,2.2c18.4-1.7,4.3-39.1-21.4-22.6
				c-29.2,18.8,6,68.9,48.3,60.4l0.1,0.6c-0.1,0-0.3,0.1-0.5,0.1c-8.6,1.7-18.4,2-24.4,1.2c-5.4-0.7-7.6-2.4-9.6-1.3c0,0,0,0,0,0
				c-1.3-0.7-2.2-1.1-2.7-1.3c0,1.7-0.1,3.3-0.4,4.9c-1.7,2.7-3.9,6.4-7.1,9.8c-0.5,0.6-1.1,1.1-1.6,1.7L457,575z"/>
			<path class="st3" d="M431.3,423.5c-2,1.6-6.5,7.1-8.4,12l-0.2-0.1c1.1-3.1,3.2-7.6,7.2-11.6c4.6-4.7,11.8-8.7,19.5-10.7
				c7.7-2,16-2.1,23.5-0.2c7.5,1.9,14.3,5.8,19.8,10.4c5.5,4.6,9.8,10,11.7,15.7c1.9,5.7,1.5,11.6,1,16.3c-0.6,4.6-1.3,8,0.8,8.6
				c0.2,0,0.3,0.1,0.5,0.1c2.3,0.3,6.7-1.5,10.7-2.3c4.3-0.9,8.1-0.5,11.1,1.2c3,1.7,5.2,4.8,6.1,7.3c0.3,0.8,0.5,1.5,0.6,2.2
				c-1.2-2.5-3.5-5.2-5.3-6.7c-8.5-7.1-17.4-2.3-25.1,3c-1.2,0.9-3.2,2.8-4,1.1c-1.2-2.3,13.1-32.4-15.4-49.6
				C469.2,410.3,447.6,410.9,431.3,423.5z"/>
			<path class="st3" d="M421.8,433.4c2-8.5,9.5-15.8,17.2-19.2c5.9-2.6,12.8-4.2,19.8-4.6h6.9c11.6,0.6,23,4.5,30.8,12
				c4.1,4,7.4,8,9.6,13.8c3.5,9.1,3,18,0.7,27.8l0,0.8c-0.2,0-0.3-0.1-0.5-0.1c-2-0.7-1.3-4-0.8-8.6c0.6-4.7,1-10.6-1-16.3
				c-1.9-5.7-6.2-11-11.7-15.7c-5.5-4.6-12.3-8.5-19.8-10.4c-7.5-1.9-15.8-1.8-23.5,0.2c-7.7,2-14.9,6-19.5,10.7
				c-4,4-6.1,8.6-7.2,11.6c-0.2,0.5-0.4,1-0.5,1.4c0,0.1-0.1,0.3-0.1,0.4l-0.9-0.3C421.4,436.5,421.8,433.7,421.8,433.4z"/>
			<path class="st3" d="M407.7,577c3.9,4.3,9.9,8.1,15.6,9.9c5.7,1.8,10.9,1.7,17.2-0.8c5.6-2.2,12-6.3,16.7-10.9
				c0.6-0.5,1.1-1.1,1.6-1.7c3.2-3.5,5.3-7.2,7.1-9.8c-1.5,8.5-7.1,14.7-14.3,19.7c-3.6,2.5-11.8,5.8-16.6,6.1
				c-20.1,1.4-28.6-8-37-23.9l-0.1-0.6c1.1-0.2,1.9,0,2.8,1C402.2,568,403.9,572.7,407.7,577z"/>
			<path class="st1" d="M385.2,472.7c0.1,0.2,0.2,0.5,0.3,0.7c-0.3-0.1-0.5-0.1-0.8-0.2C384.9,473.1,385.1,472.9,385.2,472.7
				C385.2,472.7,385.2,472.7,385.2,472.7z"/>
			<path class="st3" d="M385.5,470l0,3.4c-0.1-0.2-0.2-0.4-0.3-0.7c0.5-1.3-1.1-4.3-1-8.7c0-4.4,1.8-10.2,4.1-14.9
				c2.3-4.7,5.2-8.4,8.9-10.5c3.7-2,8.2-2.4,12.4-1.8c4.2,0.6,8.1,2.2,10,2.8c1.8,0.6,1.8,0.2,2.7-2.4c0-0.1,0.1-0.2,0.1-0.4
				c0.1-0.4,0.3-0.9,0.5-1.4l0.2,0.1c-0.9,2.3-1.2,4.4-0.4,6c-3-0.3-17.2-9.3-29.2,2.7C386.3,451.2,385,460.1,385.5,470z"/>
			<path class="st3" d="M385.2,472.7c-9.9-19.5,2.3-35.2,18.1-38.5c16.3-3.4,16.3,7.1,17.9,2.6l0.9,0.3c-0.9,2.6-0.9,3-2.7,2.4
				c-1.9-0.6-5.8-2.1-10-2.8c-4.2-0.6-8.7-0.3-12.4,1.8c-3.7,2-6.6,5.7-8.9,10.5c-2.3,4.7-4,10.5-4.1,14.9
				C384.1,468.4,385.7,471.4,385.2,472.7z"/>
			<path class="st2" d="M387.8,475.1c-8.7-2-18.7-5-28.1-3.4c0.9-0.3,1.8-0.5,2.6-0.6c6.6-1.3,11.6,0.1,15.5,1.2
				c3.4,0.9,6,1.5,7,0.9c0.3,0.1,0.5,0.1,0.8,0.2l1.1,0.6c0.1,0.1,0.3,0.2,0.3,0.2C387.6,474.8,387.4,474.5,387.8,475.1z"/>
			<path class="st3" d="M394.6,565.8c-3.3,0.6-8.6,0.7-13.7-1.2c-4-1.6-7.9-4.5-10.5-7.1l0.3-0.3c2.6,2.4,5.7,4.4,8.2,5.4
				c9.3,3.8,13.1,1.6,18.6-2c3.3,2.2,4.9,4.6,7.3,8.1c6.8,10,14.1,18.2,27.8,16.2c10.1-1.5,18.5-4.1,24.4-9.8l0.3,0.3
				c-4.8,4.6-11.1,8.7-16.7,10.9c-6.3,2.5-11.5,2.6-17.2,0.8c-5.7-1.8-11.7-5.6-15.6-9.9c-3.9-4.3-5.6-9-7-10.9
				c-0.8-1.1-1.6-1.2-2.8-1C397.1,565.2,396.1,565.5,394.6,565.8z"/>
			<path class="st3" d="M370.4,557.5c2.6,2.5,6.5,5.5,10.5,7.1c5,2,10.4,1.8,13.7,1.2c1.4-0.3,2.5-0.6,3.3-0.7l0.1,0.6
				c-10.4,5.5-22.9,1-29.2-6.1c-1.8-2.1-3.8-5.1-4.3-8.5c1.6,1.2,2.2,2.5,4.2,4.7C369.2,556.3,369.8,556.9,370.4,557.5z"/>
			<path class="st1" d="M364.4,550.3c0,0.3,0,0.5,0.1,0.8c-0.4-0.3-0.8-0.5-1.3-0.8C363.6,550.3,364,550.3,364.4,550.3z"/>
			<path class="st3" d="M341.3,484.4c-9.4,14.2-8.7,36,1.2,49.1c4.1,5.5,11.7,10.8,20.8,11.1c33.1,0.8,29-22.5,19.2-30.6
				c-8.3-6.9-15.2,4.8-15.2,12.4h-0.6c0-5.5,0-8.5,2.1-12.2c9-16.4,46.2,15.4,8.8,33.8c-3.2,1.6-6.6,2.3-11.4,2.3
				c0.5,2.3,2.3,4.7,4.6,6.9l-0.3,0.3c-0.7-0.6-1.2-1.2-1.7-1.7c-2-2.2-2.6-3.5-4.2-4.7c-0.1-0.3-0.1-0.5-0.1-0.8
				c-0.4,0-0.8,0-1.2,0c0,0-0.1,0-0.1-0.1c-2.8-1.5-8.3-3.2-13.9-7.8c-5.7-4.6-11.6-12.2-14.6-19.3c-2.9-7.1-2.8-13.8-1.5-20.9
				c1.3-7.1,3.8-14.6,9.1-20.3c1.5-1.6,3.2-3,5-4.3C345.1,479.4,343.1,481.6,341.3,484.4z"/>
			<path class="st3" d="M363.3,550.2c-12-0.6-21.5-9.7-26.5-17.3c-4.5-6.8-7.5-14.4-8.2-22.3v-7.3c0.2-2,0.5-4.1,1-6.1
				c2.7-11.1,11-20.1,19.9-25.1c9-5.1,17.7-4.7,28-1.5c2.4,0.8,4.8,1.9,7.3,2.6c-1,0.6-3.6,0-7-0.9c-3.9-1-8.9-2.4-15.5-1.2
				c-0.8,0.2-1.7,0.4-2.6,0.6c0,0,0,0-0.1,0c-4.4,0.8-8.6,2.6-12.5,5.9c-1.8,1.3-3.5,2.7-5,4.3c-5.3,5.7-7.9,13.2-9.1,20.3
				c-1.3,7.1-1.4,13.8,1.5,20.9c2.9,7.1,8.9,14.7,14.6,19.3c5.7,4.6,11.1,6.3,13.9,7.8C363.2,550.2,363.2,550.2,363.3,550.2z"/>
		</g>
		<g>
			<path class="st5" d="M649.1,519.2c1.4-0.7,2.7-1.3,3.8-2c4-2.3,6.3-4.3,8.1-5.9"/>
			<path class="st5" d="M611,523.5c7.5,0.3,15,0.6,21.1,0.1c1.8-0.2,3.5-0.4,5.1-0.7"/>
			<path class="st5" d="M469.1,560.1c2-1.1,4.3,0.5,9.6,1.3c5.9,0.8,15.8,0.5,24.4-1.2c0.2,0,0.3-0.1,0.5-0.1"/>
			<path class="st5" d="M466,563.7c0.9-1.4,1.7-2.5,2.5-3.2c0.2-0.2,0.4-0.3,0.7-0.5"/>
			<path class="st5" d="M363.3,550.2c0.5,0.3,0.9,0.5,1.3,0.8"/>
			<path class="st5" d="M359.6,471.7c-4.1,1.1-8.6,3.2-12.5,5.9"/>
			<path class="st5" d="M385.2,472.7C385.2,472.7,385.2,472.7,385.2,472.7c-0.1,0.3-0.2,0.4-0.4,0.5"/>
			<path class="st5" d="M535.6,474c-0.1-0.5-0.2-1-0.3-1.7"/>
			<path class="st5" d="M663,504c-0.7,0.5-1.5,1-2.4,1.5"/>
			<path class="st5" d="M385.5,473.4l0-3.4c-0.5-9.9,0.8-18.8,7.8-25.8c12-12,26.2-3,29.2-2.7c-0.8-1.6-0.5-3.7,0.4-6
				c1.8-4.9,6.3-10.4,8.4-12c16.3-12.6,37.9-13.1,54.1-3.3c28.5,17.2,14.2,47.3,15.4,49.6c0.9,1.6,2.8-0.3,4-1.1
				c7.7-5.4,16.7-10.2,25.1-3c1.7,1.5,4.1,4.2,5.3,6.7c0.3,0.6,0.5,1.2,0.6,1.7c-0.1,0-0.2,0-0.3,0c-9.1,1.1-26.8,17.7-11.7,36.4
				c1.4,1.8,4.6,4.2,6.8,5.1c3.1,1.3,6.5,1.6,10.1,0.4c2.6-0.9,6.3-3.1,7.6-4.9c-2.7,0.6-16,7.9-23.1-2.5
				c-5.1-7.4-3.3-18.1,1.6-24.2c2.6-3.1,5-4.9,9-6.4c6.6-2.5,13.6-1.3,20.1,1.2c5.9,2.2,11.4,5.5,16.2,8.1c3.5,2,6.2,3.8,9.7,5.7
				c17,9.5,37.7,22.1,58.4,19.9c3-0.3,4.7,0,7.4-0.6c2.3-0.5,4.2-0.9,6.4-1.6c9.7-2.9,7-4.4,10.6-5.3c-1.3,2.4-2.4,4.4-3.7,6
				c0,0,0,0,0,0c-2.3,3-5.1,4.9-10,7.1c-0.6,0.3-1.2,0.5-1.8,0.8c0,0-0.1,0-0.1,0c-4.1,1.7-8.1,2.9-11.8,3.8c0,0,0,0-0.1,0
				c-9.6,2.1-18,1.6-26.2,0.6c-17.9-2.1-34.9-6.5-61.6,9.5c-12.3,7.4-14.8,10.5-24.2,16.8c-6,4-10.9,6.8-18.5,8.9
				c-1.1,0.3-2.2,0.6-3.3,0.8c-42.3,8.6-77.5-41.6-48.3-60.4c25.7-16.6,39.8,20.9,21.4,22.6c-4.1,0.4-8-1.9-11.3-2.2
				c4.8,4.2,12.8,6.1,17.5,1.6c8.3-7.9,5.4-25.7-11-28.6c-17.4-3.1-39.2,11.4-28.2,39c4.7,11.8,12.4,20.2,22.2,26.8
				c-1.7,7.5-4.7,12.8-8.8,16.7c-6,5.7-14.3,8.3-24.4,9.8c-13.7,2-21-6.2-27.8-16.2c-2.4-3.5-4-5.9-7.3-8.1c-5.5,3.6-9.2,5.8-18.6,2
				c-2.5-1-5.6-3-8.2-5.4c-2.3-2.1-4-4.6-4.6-6.9c4.9,0,8.3-0.7,11.4-2.3c37.4-18.5,0.3-50.3-8.8-33.8c-2,3.7-2.1,6.7-2.1,12.2h0.6
				c0-7.6,6.9-19.3,15.2-12.4c9.7,8.1,13.9,31.5-19.2,30.6c-9.1-0.2-16.7-5.6-20.8-11.1c-9.8-13.1-10.6-34.9-1.2-49.1
				c1.8-2.8,3.8-5,5.9-6.8c3.9-3.4,8.1-5.1,12.5-5.9c0,0,0,0,0.1,0c9.4-1.6,19.4,1.4,28.1,3.4c-0.4-0.6-0.2-0.3-0.9-0.8
				c-0.1-0.1-0.2-0.2-0.3-0.2L385.5,473.4z"/>
			<path class="st5" d="M506.9,463.1c2.3-9.7,2.8-18.6-0.7-27.8c-2.2-5.7-5.5-9.8-9.6-13.8c-7.8-7.5-19.1-11.4-30.8-12h-6.9
				c-7.1,0.4-13.9,1.9-19.8,4.6c-7.7,3.4-15.2,10.7-17.2,19.2c-0.1,0.3-0.4,3.1-0.6,3.5c-1.6,4.5-1.6-6-17.9-2.6
				c-15.9,3.3-28,19-18.1,38.5c0.1,0.2,0.2,0.5,0.3,0.7c-0.3-0.1-0.5-0.1-0.8-0.2c-2.5-0.7-4.9-1.8-7.3-2.6c-10.3-3.3-19-3.6-28,1.5
				c-8.9,5-17.2,14-19.9,25.1c-0.5,2.1-0.8,4.1-1,6.1v7.3c0.7,8,3.7,15.5,8.2,22.3c5,7.5,14.5,16.7,26.5,17.3c0.4,0,0.8,0,1.2,0
				c0,0.3,0,0.5,0.1,0.8c0.5,3.4,2.5,6.4,4.3,8.5c6.3,7.1,18.8,11.6,29.2,6.1c8.4,15.9,16.9,25.3,37,23.9c4.8-0.3,13-3.6,16.6-6.1
				c7.2-5,12.8-11.2,14.3-19.7c0.3-1.6,0.4-3.2,0.4-4.9c0.5,0.1,1.4,0.6,2.7,1.3c0,0,0,0,0,0c2.2,1.1,5.4,2.7,9.2,3.9
				c10.5,3.2,19.7,2.8,30.2,0c5.6-1.5,10.4-3.8,15.2-6.5c1.2-0.6,2-1,3-1.5c1.6-0.9,3.6-2.3,5.1-3.4c8.5-6,14.2-12.9,21.9-18.1
				c2.6-1.7,5.4-3.2,8.6-4.5c28.4-11,85,10.5,103.1-22.2c1.2-2.1,3.5-7.5,3.7-10l-2.6,2c-1.1,1.2-1.1,2-2.4,3.2
				c-0.3,0.3-0.7,0.6-1.1,0.9c0,0-0.1,0-0.1,0.1c-0.7,0.5-1.5,1-2.4,1.5c-6.9,3.6-17.1,4.3-23.9,3.8c-12-1-16-3-26.8-7.4
				c-18-7.3-53.2-38-72.8-28.6c-0.6-7.6-9.3-17.6-21.4-14C510.5,460.9,511.3,460.7,506.9,463.1z"/>
			<polygon class="st5" points="669.2,497.9 669.8,497.9 669.3,497.2 			"/>
		</g>
	</g>
</g>
</svg>
