<?xml version="1.0" encoding="utf-8"?>
<!-- Generator: Adobe Illustrator 22.0.0, SVG Export Plug-In . SVG Version: 6.00 Build 0)  -->
<svg version="1.1" id="Layer_1" xmlns="http://www.w3.org/2000/svg" xmlns:xlink="http://www.w3.org/1999/xlink" x="0px" y="0px"
	 viewBox="0 0 1000 1000" style="enable-background:new 0 0 1000 1000;" xml:space="preserve">
<style type="text/css">
	.st0{fill-rule:evenodd;clip-rule:evenodd;fill:#FF8200;}
	.st1{fill:#8D8090;}
	.st2{fill:#483150;}
	.st3{fill:#CEB47B;}
	.st4{fill:#007AFF;}
	.st5{fill:#FF8200;}
	.st6{fill:none;stroke:#FF8200;stroke-miterlimit:10;}
</style>
<path class="st0" d="M139.7,419.7c0,168.4,136.5,304.9,304.9,304.9c168.4,0,304.9-136.5,304.9-304.9c0-130.1-81.5-241.1-196.2-284.9
	c70.1,38.5,117.7,113,117.7,198.6c0,125-101.3,226.4-226.4,226.4S218.2,458.4,218.2,333.4c0-85.6,47.5-160.2,117.7-198.6
	C221.2,178.6,139.7,289.6,139.7,419.7z"/>
<g>
	<g id="XMLID_1_">
		<g>
			<polygon class="st1" points="951.2,689.2 952.4,690.8 951,690.8 			"/>
			<path class="st2" d="M935.6,706.1c-1.8,1.4-3.8,2.6-6,3.7C931.8,708.5,933.8,707.3,935.6,706.1z"/>
			<path class="st3" d="M901.1,743.6c-7.7,3.6-17.3,7.1-29.1,9.3C881.2,750.9,890.8,747.9,901.1,743.6z"/>
			<path class="st4" d="M425.8,881.7c-14.8,14.1-35.4,20.6-60.5,24.3c-33.9,5-52-15.3-68.8-40c-5.8-8.6-9.9-14.5-18-20
				c-13.5,9-22.8,14.4-46,5.1c-6.2-2.5-13.9-7.5-20.2-13.4c-5.6-5.3-10-11.3-11.4-17c12,0,20.4-1.7,28.2-5.6
				c92.5-45.8,0.7-124.5-21.7-83.8c-5,9.2-5.1,16.5-5.1,30.1h1.4c0-18.8,17.2-47.8,37.7-30.7c24.1,20.2,34.3,77.9-47.6,75.8
				c-22.5-0.6-41.3-13.8-51.6-27.4c-24.4-32.4-26.2-86.4-2.8-121.5c4.6-6.9,9.4-12.4,14.6-16.8c9.6-6.8,20.7-11.8,30.8-14.7
				c0,0,0.1,0,0.1,0c23.2-4.1,48,3.4,69.5,8.4c-1.1-1.5-0.4-0.7-2.2-2.1c-0.2-0.2-0.6-0.4-0.8-0.6l-2.6-1.6l0-8.4
				c-1.3-24.5,1.9-46.4,19.3-63.9c29.6-29.7,64.9-7.3,72.3-6.7c-1.9-3.9-1.1-9.2,1-14.8c4.6-12.2,15.7-25.8,20.7-29.7
				c40.2-31.2,93.8-32.5,134-8.2c70.6,42.6,35.2,117,38.2,122.7c2.1,4.1,6.9-0.7,9.9-2.8c19.1-13.3,41.2-25.2,62.2-7.5
				c4.3,3.6,10.1,10.3,13,16.6c0.3,1.7,0.5,3.1,0.8,4.3c-22.6,2.6-66.3,43.9-28.9,90.2c3.6,4.4,11.3,10.3,16.9,12.7
				c7.6,3.2,16,4,25,0.9c6.5-2.2,15.6-7.6,18.8-12.2c-6.8,1.6-39.7,19.5-57.2-6.2c-12.5-18.3-8.3-44.9,3.9-59.8
				c6.4-7.8,12.3-12.1,22.3-15.8c16.4-6.1,33.6-3.2,49.8,2.9c14.5,5.5,28.3,13.6,40,20.1c8.8,4.9,15.4,9.3,24,14.1
				c42,23.4,93.2,54.7,144.5,49.1c7.5-0.8,11.7-0.1,18.3-1.5c5.7-1.2,10.3-2.2,15.9-3.9c24.1-7.2,17.3-10.8,26.3-13.2
				c-3.2,6.1-6,10.8-9.1,14.8c0,0,0,0,0,0c-4.5,4.2-10.2,9.1-20,14.7c-2.8,1.6-5.9,3.3-9.3,4.9c-0.1,0-0.1,0.1-0.2,0.1
				c-10.2,4.3-19.9,7.3-29.1,9.3c0,0-0.1,0-0.1,0c-4,0.7-8.1,1.3-12.6,1.7c-15.3,1.4-33.7,0.6-52.3-0.2
				c-44.3-5.3-86.4-16-152.4,23.4c-30.5,18.2-36.6,26.1-59.9,41.6c-14.7,9.9-27,16.9-45.7,22c-2.7,0.7-5.4,1.4-8.1,1.9
				C436.1,864.5,349,740.4,421.2,693.9c63.6-41,98.5,51.7,53,55.8c-10.2,0.9-19.9-4.7-27.9-5.3c11.9,10.3,31.7,15.1,43.4,4
				c20.4-19.5,13.3-63.6-27.2-70.9c-43.1-7.7-97,28.2-69.8,96.5c11.6,29.1,30.7,49.9,55,66.3C443.4,858.7,435.9,872,425.8,881.7z"/>
			<path class="st5" d="M943,709.6c2.6-4.4,4.3-9.5,0-7.8c-1.6,0.6-4,2.2-7.2,4.2c0.9-0.7,1.8-1.5,2.6-2.2c3.2-2.9,3.2-5,6-7.9
				l6.5-5c-0.5,6.1-6.3,19.4-9.2,24.6c-44.8,80.8-184.9,27.8-255.3,54.9c-7.9,3-14.8,6.8-21.2,11.1l0,0c12-7.8,24.2-14.9,38.3-19.7
				c19.9-6.8,43.6-9,71.5-8.5c10.2,0.1,21,0.7,31.7,1.2c20.3,2.5,41.2,3.8,64.9-1.4c0,0,0.1,0,0.1,0c11.8-2.2,21.4-5.6,29.1-9.3
				c0.1,0,0.1,0,0.2-0.1c1.5-0.6,3-1.3,4.6-2c12.3-5.5,19-10.1,24.8-17.6c0,0,0,0,0,0c0.6-0.5,1.1-1.1,1.7-1.6
				C937,717.8,940.5,714,943,709.6z"/>
			<path class="st5" d="M943,701.8c4.3-1.7,2.6,3.4,0,7.8c-2.6,4.4-6,8.1-10.7,12.7c-0.5,0.5-1.1,1-1.7,1.6c3-3.9,5.8-8.7,9.1-14.8
				c-9,2.4-2.2,6.1-26.3,13.2c-5.6,1.7-10.2,2.7-15.9,3.9c-6.6,1.4-10.7,0.6-18.3,1.5c-51.2,5.6-102.4-25.7-144.5-49.1
				c-8.6-4.8-15.2-9.2-24-14.1c-11.7-6.5-25.5-14.6-40-20.1l1.3-3.4c8.6,3.3,18.4,7.7,29.8,13.3c27.5,13.6,63.7,34.2,92.9,47.6
				s51.4,19.7,70.8,21.5c19.4,1.9,36-0.7,49.5-6.2c5.4-2.2,10.3-4.9,14.5-7.4c2.2-1.1,4.2-2.4,6-3.7c0.1-0.1,0.2-0.1,0.3-0.2
				C939,704,941.5,702.4,943,701.8z"/>
			<path class="st5" d="M608.4,734.5c-5.6-2.4-13.4-8.2-16.9-12.7c-37.4-46.3,6.3-87.5,28.9-90.2c0.3,1.3,0.8,2.2,1.7,2.5
				c2.5,0.7,8.5-2.9,21-1.5c7.3,0.9,16.9,3.5,29.2,8.2l-1.3,3.4c-16.2-6.1-33.4-9-49.8-2.9c-9.9,3.7-15.9,8.1-22.3,15.8
				c-12.2,14.9-16.5,41.5-3.9,59.8c17.5,25.7,50.5,7.8,57.2,6.2c-3.1,4.7-12.3,10-18.8,12.2C624.4,738.5,616,737.7,608.4,734.5z"/>
			<path class="st5" d="M915.1,717.2c-13.4,5.5-30,8-49.5,6.2c-19.4-1.8-41.6-8.1-70.8-21.5s-65.3-34.1-92.9-47.6
				c-11.3-5.6-21.2-10-29.8-13.3c-12.3-4.8-21.8-7.4-29.2-8.2c-12.4-1.4-18.4,2.2-21,1.5c-0.9-0.2-1.4-1.1-1.7-2.5
				c0.2,0,0.5-0.1,0.7-0.1c-0.3-1.3-0.8-2.7-1.5-4.2c-0.3-1.6-0.7-3.4-1.4-5.4c-2.3-6.3-7.8-13.9-15.2-18.1
				c-7.4-4.2-16.7-5-27.4-2.9c-9.9,1.9-20.9,6.4-26.5,5.7l0.1-1.9c11.1-5.9,9-5.6,21.7-9.3c30.1-8.9,51.4,15.8,53,34.7
				c48.6-23.3,135.7,52.5,180.3,70.7c26.7,10.9,36.7,15.8,66.4,18.2c16.7,1.4,42.1-0.3,59.1-9.3C925.4,712.4,920.5,715,915.1,717.2z
				"/>
			<path class="st5" d="M548.9,841.4c18.7-5.1,31-12.1,45.7-22c23.3-15.6,29.4-23.4,59.9-41.6c66-39.4,108.1-28.7,152.4-23.4
				c-10.7-0.5-21.5-1-31.7-1.2c-27.9-0.5-51.6,1.8-71.5,8.5c-14.1,4.8-26.3,11.9-38.3,19.7c-4.9,3.2-9.8,6.5-14.8,9.9
				c-17.1,11.5-35.1,23.2-53.1,32.8c-17.8,9.4-35.6,16.7-56.4,20.8l-0.3-1.5C543.5,842.8,546.2,842.1,548.9,841.4z"/>
			<path class="st5" d="M479.6,847.9c14.7,2,39.1,1.2,60.3-2.9c0.4-0.1,0.8-0.1,1.2-0.2c20.8-4.1,38.6-11.4,56.4-20.8
				c18.1-9.6,36.1-21.3,53.1-32.8c5-3.3,9.9-6.7,14.8-9.9l0,0c-19.1,12.8-33.1,29.9-54.2,44.7c-3.8,2.7-8.8,6.1-12.7,8.4
				c-2.5,1.5-4.6,2.2-7.5,3.8c-11.9,6.6-23.8,12.4-37.6,16c-26.1,6.8-48.7,8-74.7,0c-9.5-2.9-17.4-6.8-22.8-9.6
				C460.9,842.1,466.4,846.2,479.6,847.9z"/>
			<path class="st2" d="M455.8,844.8c-0.5,0.3-1.1,0.7-1.7,1.2c-1.9,1.6-3.9,4.4-6.1,7.8c0.7-3.8,1.1-7.9,1.1-12.1
				C450.3,842,452.6,843.2,455.8,844.8z"/>
			<path class="st5" d="M425.8,881.7c10.1-9.7,17.5-23,21.9-41.4c-24.3-16.3-43.4-37.2-55-66.3c-27.2-68.4,26.6-104.3,69.8-96.5
				c40.6,7.3,47.7,51.4,27.2,70.9c-11.8,11.2-31.6,6.4-43.4-4c8,0.7,17.6,6.3,27.9,5.3c45.5-4.1,10.6-96.8-53-55.8
				c-72.2,46.5,14.9,170.6,119.6,149.4l0.3,1.5c-0.4,0.1-0.8,0.1-1.2,0.2c-21.3,4.1-45.6,4.9-60.3,2.9c-13.2-1.8-18.7-5.8-23.8-3.1
				c0,0,0,0,0,0c-3.2-1.6-5.5-2.8-6.7-3.1c0,4.3-0.4,8.3-1.1,12.1c-4.3,6.6-9.6,15.8-17.5,24.4c-1.3,1.4-2.6,2.8-4.1,4.2
				L425.8,881.7z"/>
			<path class="st5" d="M496.2,498.5c-40.1-24.3-93.8-22.9-134,8.2c-5,3.9-16.1,17.5-20.7,29.7l-0.4-0.1c2.8-7.5,8-18.8,17.9-28.8
				c11.5-11.6,29.2-21.5,48.4-26.6c19.1-5,39.6-5.2,58.2-0.6c18.6,4.7,35.3,14.2,49,25.7s24.3,24.8,29.1,38.8
				c4.8,14,3.8,28.8,2.4,40.3c-1.4,11.5-3.2,19.8,1.9,21.4c0.4,0.1,0.7,0.2,1.2,0.2c5.6,0.7,16.6-3.8,26.5-5.7
				c10.7-2.1,20-1.3,27.4,2.9c7.4,4.2,12.9,11.8,15.2,18.1c0.7,1.9,1.1,3.8,1.4,5.4c-2.9-6.3-8.7-13-13-16.6
				c-21-17.6-43.1-5.8-62.2,7.5c-3.1,2.2-7.8,6.9-9.9,2.8C531.4,615.4,566.8,541.1,496.2,498.5z"/>
			<path class="st5" d="M514.6,506c-13.7-11.4-30.4-21-49-25.7c-18.6-4.7-39.1-4.5-58.2,0.6c-19.2,5-36.9,14.9-48.4,26.6
				c-9.9,10-15,21.3-17.9,28.8c-0.5,1.2-0.9,2.4-1.2,3.4c-0.1,0.3-0.2,0.6-0.3,0.9l-2.3-0.8c0.3-0.9,1.3-7.7,1.5-8.6
				c4.9-21.1,23.5-39.1,42.6-47.6c14.6-6.5,31.6-10.3,49.1-11.3h17.1c28.7,1.6,56.9,11.1,76.1,29.7c10.2,9.9,18.3,19.9,23.7,34.1
				c8.6,22.5,7.4,44.6,1.8,68.7l-0.1,1.9c-0.4,0-0.8-0.1-1.2-0.2c-5.1-1.6-3.3-9.9-1.9-21.4c1.4-11.5,2.4-26.3-2.4-40.3
				C538.9,530.7,528.3,517.4,514.6,506z"/>
			<path class="st5" d="M342.5,911.2c14,4.6,27.1,4.2,42.5-1.9c13.9-5.5,29.7-15.5,41.4-27c1.4-1.4,2.8-2.7,4.1-4.2
				c7.9-8.6,13.2-17.8,17.5-24.4c-3.8,21.1-17.5,36.3-35.3,48.7c-8.9,6.2-29.3,14.4-41.2,15.2c-49.7,3.5-70.7-19.8-91.6-59.2
				l-0.2-1.4c2.8-0.5,4.7-0.1,6.8,2.5c3.6,4.7,7.8,16.4,17.4,27C313.5,897.3,328.5,906.7,342.5,911.2z"/>
			<path class="st2" d="M248,628.5c0.3,0.6,0.6,1.1,0.9,1.7c-0.6-0.1-1.2-0.3-1.9-0.5c0.4-0.2,0.7-0.6,0.9-1
				C248,628.6,248,628.6,248,628.5z"/>
			<path class="st5" d="M341.5,536.4c-2.1,5.6-2.9,10.9-1,14.8c-7.4-0.6-42.7-23-72.3,6.7c-17.4,17.5-20.6,39.4-19.3,63.9l0,8.4
				c-0.3-0.6-0.6-1.1-0.9-1.7c1.3-3.1-2.6-10.7-2.5-21.4c0.1-11,4.3-25.2,10-37c5.7-11.7,12.9-20.9,22.1-25.9
				c9.2-5,20.3-5.9,30.7-4.4c10.4,1.5,19.9,5.4,24.7,6.8c4.5,1.4,4.5,0.4,6.7-6c0.1-0.3,0.2-0.6,0.3-0.9c0.3-1,0.7-2.2,1.2-3.4
				L341.5,536.4z"/>
			<path class="st5" d="M333,546.6c-4.7-1.4-14.3-5.3-24.7-6.8c-10.4-1.5-21.6-0.6-30.7,4.4c-9.2,5-16.3,14.2-22.1,25.9
				c-5.7,11.7-9.9,26-10,37c-0.1,10.8,3.8,18.3,2.5,21.4c-24.4-48.3,5.6-87.1,44.9-95.2c40.4-8.3,40.3,17.6,44.4,6.5l2.3,0.8
				C337.5,547,337.4,547.9,333,546.6z"/>
			<path class="st5" d="M426.4,882.3c-11.8,11.4-27.6,21.5-41.4,27c-15.5,6.1-28.5,6.4-42.5,1.9c-14-4.5-29-13.9-38.6-24.5
				c-9.6-10.6-13.8-22.3-17.4-27c-2.1-2.6-4-3-6.8-2.5c-2.1,0.3-4.7,1.1-8.2,1.8c-8.2,1.4-21.4,1.8-33.9-3.1
				c-10-3.9-19.6-11.3-26.1-17.5l0.8-0.8c6.3,6,14,11,20.2,13.4c23.1,9.3,32.5,4,46-5.1c8.2,5.5,12.2,11.4,18,20
				c16.7,24.8,34.9,45,68.8,40c25.1-3.7,45.7-10.1,60.5-24.3L426.4,882.3z"/>
			<path class="st5" d="M237.6,855.9c12.5,4.9,25.7,4.5,33.9,3.1c3.5-0.6,6.1-1.4,8.2-1.8l0.2,1.4c-25.7,13.6-56.7,2.5-72.3-15.1
				c-4.5-5.1-9.4-12.7-10.7-21c3.9,3,5.3,6.2,10.3,11.6c1.2,1.3,2.6,2.8,4.3,4.3C218.1,844.6,227.6,852,237.6,855.9z"/>
			<path class="st2" d="M196.7,820.5c0,0.7,0.1,1.3,0.2,2c-0.9-0.7-2-1.4-3.2-2C194.8,820.5,195.7,820.5,196.7,820.5z"/>
			<path class="st3" d="M251.6,631.8c0.2,0.1,0.6,0.4,0.8,0.6c1.8,1.3,1.1,0.6,2.2,2.1c-21.6-5-46.4-12.5-69.5-8.4
				c2.2-0.6,4.4-1.1,6.5-1.5c16.3-3.1,28.6,0.3,38.3,2.9c8.3,2.2,14.7,3.8,17.3,2.3c0.6,0.2,1.2,0.3,1.9,0.5L251.6,631.8z"/>
			<path class="st5" d="M158.9,801c-14.1-11.4-28.8-30.2-36.1-47.9c-7.3-17.6-7-34.2-3.8-51.7c3.2-17.5,9.4-36.1,22.6-50.1
				c3.6-3.9,7.8-7.4,12.3-10.5c-5.1,4.4-10,10-14.6,16.8c-23.3,35.2-21.5,89.1,2.8,121.5c10.2,13.6,29,26.8,51.6,27.4
				c81.9,2.1,71.7-55.7,47.6-75.8c-20.5-17.2-37.7,11.8-37.7,30.7h-1.4c0-13.7,0.1-21,5.1-30.1c22.4-40.7,114.2,38,21.7,83.8
				c-7.8,3.9-16.2,5.6-28.2,5.6c1.3,5.7,5.8,11.7,11.4,17l-0.8,0.8c-1.6-1.5-3-3-4.3-4.3c-5-5.4-6.4-8.6-10.3-11.6
				c-0.1-0.6-0.2-1.3-0.2-2c-1,0-2,0-2.9-0.1c-0.1-0.1-0.2-0.1-0.3-0.2C186.4,816.5,173,812.4,158.9,801z"/>
			<path class="st5" d="M193.8,820.4c-29.7-1.4-53.2-24.1-65.6-42.8c-11.2-16.9-18.5-35.6-20.3-55.3v-18.1c0.4-5,1.3-10.1,2.5-15.2
				c6.6-27.6,27.1-49.8,49.2-62.2c22.4-12.5,43.8-11.7,69.3-3.6c6,1.9,11.9,4.7,18.1,6.4c-2.6,1.5-9-0.1-17.3-2.3
				c-9.7-2.6-22-6-38.3-2.9c-2.1,0.4-4.3,0.9-6.5,1.5c0,0-0.1,0-0.1,0c-10.8,1.9-21.2,6.3-30.8,14.7c-4.5,3.1-8.7,6.7-12.3,10.5
				c-13.2,14.1-19.4,32.6-22.6,50.1c-3.2,17.5-3.5,34.1,3.8,51.7c7.3,17.6,22,36.5,36.1,47.9c14.1,11.5,27.5,15.6,34.5,19.3
				C193.6,820.3,193.7,820.4,193.8,820.4z"/>
		</g>
		<g>
			<path class="st6" d="M901.3,743.5c3.5-1.6,6.6-3.3,9.3-4.9c9.8-5.7,15.5-10.5,20-14.7"/>
			<path class="st6" d="M872,752.9c11.8-2.2,21.4-5.6,29.1-9.3"/>
			<path class="st6" d="M806.9,754.4c18.6,0.9,37,1.6,52.3,0.2c4.5-0.4,8.7-1,12.6-1.7"/>
			<path class="st6" d="M455.8,844.8c5-2.7,10.5,1.3,23.8,3.1c14.7,2,39.1,1.2,60.3-2.9c0.4-0.1,0.8-0.1,1.2-0.2"/>
			<path class="st6" d="M448,853.8c2.3-3.4,4.2-6.2,6.1-7.8c0.5-0.5,1.1-0.9,1.7-1.2"/>
			<path class="st6" d="M193.8,820.4c1.2,0.7,2.3,1.3,3.2,2"/>
			<path class="st6" d="M184.8,626c-10.1,2.8-21.2,7.8-30.8,14.7"/>
			<path class="st6" d="M248,628.5c0,0.1,0,0.1,0,0.2c-0.2,0.4-0.5,0.7-0.9,1"/>
			<path class="st6" d="M620.4,631.7c-0.3-1.1-0.5-2.6-0.8-4.3"/>
			<path class="st6" d="M935.6,706.1c-1.8,1.1-3.8,2.4-6,3.7"/>
			<path class="st6" d="M248.9,630.2l0-8.4c-1.3-24.5,1.9-46.4,19.3-63.9c29.6-29.7,64.9-7.3,72.3-6.7c-1.9-3.9-1.1-9.2,1-14.8
				c4.6-12.2,15.7-25.8,20.7-29.7c40.2-31.2,93.8-32.5,134-8.2c70.6,42.6,35.2,117,38.2,122.7c2.1,4.1,6.9-0.7,9.9-2.8
				c19.1-13.3,41.2-25.2,62.2-7.5c4.3,3.6,10.1,10.3,13,16.6c0.7,1.4,1.2,2.8,1.5,4.2c-0.2,0-0.5,0-0.7,0.1
				c-22.6,2.6-66.3,43.9-28.9,90.2c3.6,4.4,11.3,10.3,16.9,12.7c7.6,3.2,16,4,25,0.9c6.5-2.2,15.6-7.6,18.8-12.2
				c-6.8,1.6-39.7,19.5-57.2-6.2c-12.5-18.3-8.3-44.9,3.9-59.8c6.4-7.8,12.3-12.1,22.3-15.8c16.4-6.1,33.6-3.2,49.8,2.9
				c14.5,5.5,28.3,13.6,40,20.1c8.8,4.9,15.4,9.3,24,14.1c42,23.4,93.2,54.7,144.5,49.1c7.5-0.8,11.7-0.1,18.3-1.5
				c5.7-1.2,10.3-2.2,15.9-3.9c24.1-7.2,17.3-10.8,26.3-13.2c-3.2,6.1-6,10.8-9.1,14.8c0,0,0,0,0,0c-5.8,7.5-12.5,12.2-24.8,17.6
				c-1.5,0.7-3,1.3-4.6,2c-0.1,0-0.1,0.1-0.2,0.1c-10.2,4.3-19.9,7.3-29.1,9.3c0,0-0.1,0-0.1,0c-23.8,5.2-44.6,3.9-64.9,1.4
				c-44.3-5.3-86.4-16-152.4,23.4c-30.5,18.2-36.6,26.1-59.9,41.6c-14.7,9.9-27,16.9-45.7,22c-2.7,0.7-5.4,1.4-8.1,1.9
				C436.1,864.5,349,740.4,421.2,693.9c63.6-41,98.5,51.7,53,55.8c-10.2,0.9-19.9-4.7-27.9-5.3c11.9,10.3,31.7,15.1,43.4,4
				c20.4-19.5,13.3-63.6-27.2-70.9c-43.1-7.7-97,28.2-69.8,96.5c11.6,29.1,30.7,49.9,55,66.3c-4.3,18.5-11.7,31.8-21.9,41.4
				c-14.8,14.1-35.4,20.6-60.5,24.3c-33.9,5-52-15.3-68.8-40c-5.8-8.6-9.9-14.5-18-20c-13.5,9-22.8,14.4-46,5.1
				c-6.2-2.5-13.9-7.5-20.2-13.4c-5.6-5.3-10-11.3-11.4-17c12,0,20.4-1.7,28.2-5.6c92.5-45.8,0.7-124.5-21.7-83.8
				c-5,9.2-5.1,16.5-5.1,30.1h1.4c0-18.8,17.2-47.8,37.7-30.7c24.1,20.2,34.3,77.9-47.6,75.8c-22.5-0.6-41.3-13.8-51.6-27.4
				c-24.4-32.4-26.2-86.4-2.8-121.5c4.6-6.9,9.4-12.4,14.6-16.8c9.6-8.3,20-12.7,30.8-14.7c0,0,0.1,0,0.1,0
				c23.2-4.1,48,3.4,69.5,8.4c-1.1-1.5-0.4-0.7-2.2-2.1c-0.2-0.2-0.6-0.4-0.8-0.6L248.9,630.2z"/>
			<path class="st6" d="M549.2,604.8c5.6-24.1,6.8-46.2-1.8-68.7c-5.4-14.2-13.5-24.2-23.7-34.1c-19.2-18.6-47.4-28.2-76.1-29.7
				h-17.1c-17.4,1-34.5,4.8-49.1,11.3c-19.1,8.5-37.7,26.5-42.6,47.6c-0.2,0.8-1.1,7.6-1.5,8.6c-4,11.2-4-14.8-44.4-6.5
				c-39.3,8.1-69.3,47-44.9,95.2c0.3,0.6,0.6,1.1,0.9,1.7c-0.6-0.1-1.2-0.3-1.9-0.5c-6.1-1.7-12.1-4.5-18.1-6.4
				c-25.5-8.1-47-8.9-69.3,3.6c-22.1,12.4-42.6,34.6-49.2,62.2c-1.2,5.1-2.1,10.2-2.5,15.2v18.1c1.8,19.7,9.1,38.4,20.3,55.3
				c12.4,18.7,35.8,41.4,65.6,42.8c1,0,2,0.1,2.9,0.1c0,0.7,0.1,1.3,0.2,2c1.3,8.3,6.1,15.8,10.7,21c15.6,17.7,46.6,28.7,72.3,15.1
				c20.8,39.4,41.9,62.6,91.6,59.2c11.9-0.8,32.3-9,41.2-15.2c17.8-12.4,31.6-27.6,35.3-48.7c0.7-3.8,1.1-7.9,1.1-12.1
				c1.2,0.3,3.5,1.5,6.7,3.1c0,0,0,0,0,0c5.4,2.7,13.4,6.6,22.8,9.6c26.1,8,48.7,6.8,74.7,0c13.8-3.6,25.7-9.3,37.6-16
				c2.9-1.6,4.9-2.4,7.5-3.8c3.9-2.3,8.9-5.7,12.7-8.4c21-14.8,35.1-32,54.2-44.7c6.4-4.3,13.3-8,21.2-11.1
				c70.3-27.1,210.5,25.9,255.3-54.9c2.9-5.2,8.7-18.5,9.2-24.6l-6.5,5c-2.8,3-2.8,5-6,7.9c-0.8,0.8-1.7,1.5-2.6,2.2
				c-0.1,0-0.2,0.1-0.3,0.2c-1.8,1.4-3.8,2.6-6,3.7c-17,9-42.4,10.6-59.1,9.3c-29.7-2.4-39.6-7.3-66.4-18.2
				c-44.5-18.1-131.6-94-180.3-70.7c-1.6-18.9-22.9-43.5-53-34.7C558.2,599.3,560.3,599,549.2,604.8z"/>
			<polygon class="st6" points="951,690.8 952.4,690.8 951.2,689.2 			"/>
		</g>
	</g>
</g>
<path class="st0" d="M416.3,258.7l-34-15.5l-61-27.9l54.3,39.4l23.3,16.9l-35.9,3.6l-73.6,7.4L363,290l41.8,4.2l-11.1,8.1L355.5,330
	l42.9-19.6l14.9-6.8L398.8,338l-26.1,61.8l37.8-55.4l15.3-22.4l3.4,34.2l7.4,73.6l7.4-73.6l4-40.3l7,10.2l26.7,39l-18.4-43.5
	l-6.4-15.1l34,15.5l61,27.9l-54.3-39.4l-23.3-16.9l35.9-3.6l73.6-7.4l-73.6-7.4l-41.8-4.2l11.1-8.1l38.2-27.8l-42.9,19.6l-14.9,6.8
	l14.5-34.4l26.1-61.8l-37.8,55.4l-15.3,22.4L444,209l-7.4-73.6l-7.4,73.6l-4,40.3l-7-10.2l-26.6-39l18.4,43.5L416.3,258.7
	L416.3,258.7z"/>
<g id="XMLID_2_">
	<g>
		<path class="st4" d="M436.6,263.6c10.5,0,19.1,8.5,19.1,19c0,10.5-8.5,19.1-19.1,19.1s-19-8.5-19-19.1
			C417.6,272.1,426.1,263.6,436.6,263.6z"/>
	</g>
	<g>
	</g>
</g>
<g>
	<g>
		<path class="st5" d="M453.9,852.2c7.7,0,7.7-12,0-12C446.2,840.2,446.1,852.2,453.9,852.2L453.9,852.2z"/>
	</g>
</g>
</svg>
